<svg width="145" height="35" viewBox="0 0 145 35" fill="none" xmlns="http://www.w3.org/2000/svg">
<path d="M0.975098 2.78735H10.3204C16.2782 2.78735 21.2 6.23046 21.2 14.0919V15.7438C21.2 23.6649 16.5971 27.2274 10.4997 27.2274H0.975098V2.78735ZM6.1957 7.22557V22.7693H10.2008C13.5882 22.7693 15.8598 20.5602 15.8598 15.6443V14.3506C15.8598 9.43473 13.4687 7.22557 10.0215 7.22557H6.1957ZM23.9697 7.4644H28.1541L28.8316 12.0618C29.6286 8.93718 31.6611 7.26538 35.3474 7.26538H36.6426V12.5395H34.4906C30.2463 12.5395 29.2102 14.0123 29.2102 18.1918V27.2872H24.0494V7.4644H23.9697ZM37.6787 17.7738V17.2166C37.6787 10.5891 41.923 6.96684 47.7015 6.96684C53.5996 6.96684 57.7243 10.5891 57.7243 17.2166V17.7738C57.7243 24.2819 53.7191 27.7847 47.7015 27.7847C41.3053 27.725 37.6787 24.3018 37.6787 17.7738ZM52.4439 17.7141V17.2166C52.4439 13.5346 50.5908 11.3255 47.6417 11.3255C44.7525 11.3255 42.8396 13.3555 42.8396 17.2166V17.7141C42.8396 21.2766 44.6927 23.3067 47.6417 23.3067C50.5908 23.247 52.4439 21.2766 52.4439 17.7141ZM60.4342 7.4644H64.7382L65.2364 11.206C66.2725 8.69835 68.4843 6.96684 71.7522 6.96684C76.7934 6.96684 80.1211 10.5891 80.1211 17.2962V17.8534C80.1211 24.3615 76.4348 27.8046 71.7522 27.8046C68.6238 27.8046 66.4718 26.3915 65.4157 24.1227V34.1336H60.3744L60.4342 7.4644ZM74.8805 17.7141V17.2763C74.8805 13.3356 72.8481 11.3852 70.1381 11.3852C67.2489 11.3852 65.336 13.5943 65.336 17.2763V17.6544C65.336 21.1572 67.1891 23.3664 70.0784 23.3664C73.0473 23.3067 74.8805 21.416 74.8805 17.7141ZM87.7527 23.6251L87.3143 27.2473H82.8908V0.836914H87.932V10.9672C89.0479 8.37991 91.2597 6.96684 94.3881 6.96684C99.1304 7.02655 102.637 10.2905 102.637 16.8583V17.4753C102.637 24.0431 99.3098 27.8046 94.2685 27.8046C90.9409 27.725 88.7889 26.1925 87.7527 23.6251ZM97.3371 17.4753V16.9777C97.3371 13.3555 95.3644 11.3255 92.5947 11.3255C89.7652 11.3255 87.7926 13.5943 87.7926 17.0374V17.4753C87.7926 21.1572 89.7055 23.3067 92.5349 23.3067C95.5637 23.3067 97.3371 21.416 97.3371 17.4753ZM104.849 17.7738V17.2166C104.849 10.5891 109.093 6.96684 114.872 6.96684C120.77 6.96684 124.895 10.5891 124.895 17.2166V17.7738C124.895 24.2819 120.83 27.7847 114.872 27.7847C108.476 27.725 104.849 24.3018 104.849 17.7738ZM119.654 17.7141V17.2166C119.654 13.5346 117.801 11.3255 114.852 11.3255C111.963 11.3255 110.05 13.3555 110.05 17.2166V17.7141C110.05 21.2766 111.903 23.3067 114.852 23.3067C117.821 23.247 119.654 21.2766 119.654 17.7141ZM131.65 16.9777L124.695 7.4644H130.653L134.658 13.4152L138.723 7.4644H144.621L137.568 16.918L145 27.2473H139.162L134.619 20.6796L130.195 27.2473H124.098L131.65 16.9777Z" fill="white"/>
</svg>
